<svg width="21" height="21" viewBox="0 0 21 21" fill="none" xmlns="http://www.w3.org/2000/svg">
    <path d="M18.0238 8.62248L18.0359 8.74602L18.1519 8.79006C19.1615 9.1732 19.8274 10.1425 19.8229 11.2222V11.2231L19.8229 12.6231L19.8229 12.6256C19.8375 13.7607 19.1112 14.773 18.0313 15.1228L17.9348 15.154L17.903 15.2503C17.6974 15.872 17.2659 16.7152 16.3674 17.4631C15.4695 18.2106 14.0929 18.8731 11.9802 19.1144L11.8722 19.1267L11.8238 19.2241C11.5214 19.8327 10.902 20.2191 10.2225 20.2231C9.36232 20.2229 8.62243 19.6144 8.45642 18.7705C8.29037 17.9264 8.74483 17.0828 9.54107 16.7571C10.3373 16.4314 11.2527 16.7146 11.7259 17.4331L11.794 17.5366L11.9171 17.5216C14.5988 17.1953 15.7331 16.0954 16.1895 15.237L16.2872 15.0532L16.0997 14.9629C15.2004 14.5295 14.6271 13.621 14.6229 12.6227V11.2232C14.6235 10.1679 15.2619 9.21768 16.2386 8.81819L16.378 8.76118L16.3617 8.61146C16.2604 7.67906 15.9631 6.08988 15.0741 4.72871C14.1776 3.35599 12.6827 2.22307 10.2229 2.22307C7.76319 2.22307 6.26588 3.35593 5.36684 4.72849C4.4753 6.0896 4.17545 7.67875 4.07407 8.61146L4.05777 8.7614L4.19746 8.8183C5.1763 9.21699 5.81806 10.1666 5.8229 11.2235V12.6231C5.8229 14.059 4.65884 15.2231 3.2229 15.2231C1.78696 15.2231 0.622875 14.059 0.622875 12.6231L0.622877 11.2231L0.622874 11.2222C0.618429 10.1425 1.28433 9.1732 2.29387 8.79006L2.40991 8.74602L2.42196 8.62248C2.57465 7.0561 3.11403 5.04988 4.32043 3.44053C5.52044 1.83972 7.38536 0.623073 10.2229 0.623073C13.0604 0.623073 14.9254 1.83972 16.1254 3.44053C17.3318 5.04988 17.8711 7.0561 18.0238 8.62248ZM20.0229 12.6231V11.2231L10.2229 20.4231C10.9782 20.4189 11.6668 19.9895 12.0029 19.3131C16.2929 18.8231 17.6629 16.6131 18.0929 15.3131C19.2562 14.9362 20.0386 13.8458 20.0229 12.6231ZM3.2229 13.6231C3.77518 13.6231 4.2229 13.1754 4.2229 12.6231V11.2231C4.2229 10.8658 4.0323 10.5357 3.7229 10.357C3.4135 10.1784 3.0323 10.1784 2.7229 10.357C2.4135 10.5357 2.2229 10.8658 2.2229 11.2231V12.6231C2.2229 13.1754 2.67061 13.6231 3.2229 13.6231ZM17.2229 10.2231C16.6706 10.2231 16.2229 10.6708 16.2229 11.2231V12.6231C16.2229 13.1754 16.6706 13.6231 17.2229 13.6231C17.7752 13.6231 18.2229 13.1754 18.2229 12.6231V11.2231C18.2229 10.6708 17.7752 10.2231 17.2229 10.2231Z" fill="url(#paint0_linear_854_2253)" stroke="white" stroke-width="0.4"/>
    <defs>
        <linearGradient id="paint0_linear_854_2253" x1="10.223" y1="0.423073" x2="10.223" y2="20.4231" gradientUnits="userSpaceOnUse">
            <stop stop-color="#6E6CCE"/>
            <stop offset="1" stop-color="#514ED7"/>
        </linearGradient>
    </defs>
</svg>
