<svg width="25" height="25" viewBox="0 0 25 25" fill="none" xmlns="http://www.w3.org/2000/svg">
    <path d="M20.4619 15.423H19.4619M19.4619 15.423H14.4619M19.4619 15.423V15.923C19.4619 18.792 17.2652 21.148 14.4619 21.4006M17.4619 13.923V15.423M5.31905 8.42305H9.60478M4.46191 11.423L6.00039 6.03836C6.43683 4.51082 6.65506 3.74705 6.99235 3.55527C7.2835 3.38972 7.64032 3.38972 7.93147 3.55527C8.26876 3.74705 8.48699 4.51082 8.92343 6.03836L10.4619 11.423M20.4619 21.4006C18.5382 21.2273 16.9001 20.0634 16.0615 18.423M14.4619 7.42305C15.3938 7.42305 15.8597 7.42305 16.2273 7.5753C16.7173 7.77828 17.1067 8.16763 17.3097 8.65769C17.4619 9.02523 17.4619 9.49117 17.4619 10.423M7.46191 15.423C7.46191 16.3549 7.46191 16.8208 7.61415 17.1884C7.81714 17.6784 8.20649 18.0678 8.69654 18.2708C9.06409 18.423 9.53003 18.423 10.4619 18.423" stroke="url(#paint0_linear_854_2232)" stroke-width="1.2" stroke-linecap="round" stroke-linejoin="round"/>
    <defs>
        <linearGradient id="paint0_linear_854_2232" x1="12.4619" y1="3.43111" x2="12.4619" y2="21.4006" gradientUnits="userSpaceOnUse">
            <stop stop-color="#6E6CCE"/>
            <stop offset="1" stop-color="#514ED7"/>
        </linearGradient>
    </defs>
</svg>
