<svg width="24" height="24" viewBox="0 0 24 24" fill="none" xmlns="http://www.w3.org/2000/svg">
    <path d="M8.07677 18.6233C9.24615 19.2984 10.5726 19.6539 11.9229 19.6539C13.2732 19.6539 14.5997 19.2984 15.7691 18.6233C16.9385 17.9482 17.9095 16.9771 18.5847 15.8077C19.2598 14.6383 19.6152 13.3118 19.6152 11.9616C19.6152 10.6113 19.2598 9.28479 18.5847 8.11541C17.9095 6.94603 16.9385 5.97497 15.7691 5.29983C14.5997 4.62469 13.2732 4.26926 11.9229 4.26926C10.5726 4.26926 9.24615 4.62469 8.07677 5.29983" stroke="url(#paint0_linear_854_2259)" stroke-width="1.44231"/>
    <path d="M2.30762 11.9616L1.74449 11.5111L1.38409 11.9616L1.74449 12.4121L2.30762 11.9616ZM10.9615 12.6827C11.3597 12.6827 11.6826 12.3598 11.6826 11.9616C11.6826 11.5633 11.3597 11.2404 10.9615 11.2404V12.6827ZM5.59064 6.70337L1.74449 11.5111L2.87074 12.4121L6.7169 7.60437L5.59064 6.70337ZM1.74449 12.4121L5.59064 17.2198L6.7169 16.3188L2.87074 11.5111L1.74449 12.4121ZM2.30762 12.6827H10.9615V11.2404H2.30762V12.6827Z" fill="url(#paint1_linear_854_2259)"/>
    <defs>
        <linearGradient id="paint0_linear_854_2259" x1="11.9229" y1="4.26926" x2="11.9229" y2="19.6539" gradientUnits="userSpaceOnUse">
            <stop stop-color="#6E6CCE"/>
            <stop offset="1" stop-color="#514ED7"/>
        </linearGradient>
        <linearGradient id="paint1_linear_854_2259" x1="6.63454" y1="7.15387" x2="6.63454" y2="16.7693" gradientUnits="userSpaceOnUse">
            <stop stop-color="#6E6CCE"/>
            <stop offset="1" stop-color="#514ED7"/>
        </linearGradient>
    </defs>
</svg>
