<svg width="25" height="23" viewBox="0 0 25 23" fill="none" xmlns="http://www.w3.org/2000/svg">
    <path fill-rule="evenodd" clip-rule="evenodd" d="M4.51386 0.547756C4.51386 0.616327 4.47528 0.672431 4.42815 0.672431C4.38102 0.672431 4.32492 0.760078 4.30347 0.867236C4.28203 0.974395 4.26451 4.7053 4.26451 9.15815C4.26451 16.0248 4.25136 17.2542 4.17792 17.2542C4.12837 17.2542 4.07388 17.3474 4.05044 17.4724C4.02595 17.603 3.97308 17.6906 3.91885 17.6906C3.86898 17.6906 3.82815 17.7442 3.82815 17.8098C3.82815 17.9003 3.76805 17.9392 3.5788 17.9711C3.42551 17.997 3.32945 18.0472 3.32945 18.1013C3.32945 18.1693 3.22304 18.1893 2.86191 18.1893C2.50079 18.1893 2.39438 18.1693 2.39438 18.1013C2.39438 18.0472 2.29832 17.997 2.14503 17.9711C1.95577 17.9392 1.89568 17.9003 1.89568 17.8098C1.89568 17.7442 1.85485 17.6906 1.80498 17.6906C1.75075 17.6906 1.69788 17.603 1.67338 17.4724C1.64995 17.3474 1.59546 17.2542 1.5459 17.2542C1.47266 17.2542 1.45932 16.4032 1.45932 11.7374V6.22048H2.39438H3.32945V5.72178V5.22308H2.0145C0.752034 5.22308 0.698298 5.22807 0.667005 5.34776C0.649052 5.41633 0.595566 5.47243 0.548127 5.47243C0.475317 5.47243 0.461914 6.40781 0.461914 11.488C0.461914 16.7724 0.473197 17.5036 0.554673 17.5036C0.614704 17.5036 0.661519 17.5916 0.687327 17.753C0.710579 17.8986 0.761634 18.0023 0.809883 18.0023C0.855389 18.0023 0.911057 18.1005 0.933561 18.2205C0.963171 18.3784 1.00706 18.4387 1.09221 18.4387C1.16839 18.4387 1.20997 18.4827 1.20997 18.5633C1.20997 18.6643 1.25155 18.688 1.42815 18.688C1.60475 18.688 1.64633 18.7118 1.64633 18.8127C1.64633 18.9166 1.68791 18.9374 1.89568 18.9374C2.10345 18.9374 2.14503 18.9581 2.14503 19.062C2.14503 19.1857 2.18661 19.1867 7.44373 19.1867C12.7009 19.1867 12.7424 19.1857 12.7424 19.062C12.7424 18.9928 12.784 18.9374 12.8359 18.9374C12.9035 18.9374 12.9294 18.8681 12.9294 18.688C12.9294 18.5079 12.9035 18.4387 12.8359 18.4387C12.784 18.4387 12.7424 18.3832 12.7424 18.314C12.7424 18.1906 12.7009 18.1893 8.78399 18.1893C5.30692 18.1893 4.82555 18.178 4.82555 18.0958C4.82555 18.0444 4.86401 18.0023 4.91108 18.0023C4.96269 18.0023 5.01244 17.9034 5.0365 17.753C5.06231 17.5916 5.10912 17.5036 5.16916 17.5036C5.25082 17.5036 5.26191 16.5402 5.26191 9.46204V1.42048H13.4281H21.5944V6.59451C21.5944 11.1521 21.6055 11.7685 21.6879 11.7685C21.7393 11.7685 21.7814 11.8106 21.7814 11.862C21.7814 11.9313 21.8541 11.9555 22.0619 11.9555C22.2697 11.9555 22.3424 11.9313 22.3424 11.862C22.3424 11.8106 22.3845 11.7685 22.4359 11.7685C22.5184 11.7685 22.5294 11.1105 22.5294 6.22048C22.5294 1.5383 22.516 0.672431 22.4432 0.672431C22.3958 0.672431 22.3423 0.616327 22.3244 0.547756C22.2919 0.423828 22.2393 0.42308 13.4028 0.42308C4.55544 0.42308 4.51386 0.423641 4.51386 0.547756ZM8.14241 4.77113L8.16062 5.25425H13.4281H18.6957L18.7139 4.77113L18.7321 4.28802H13.4281H8.12421L8.14241 4.77113ZM8.12945 6.68802V7.15555H13.4281H18.7268V6.68802V6.22048H13.4281H8.12945V6.68802ZM8.12945 10.5218V11.0205H10.5294H12.9294V10.5218V10.0231H10.5294H8.12945V10.5218ZM13.8905 10.1075C13.8727 10.1541 13.8666 10.3714 13.8769 10.5907L13.8957 10.9893L16.3113 11.0056L18.7268 11.0219V10.5225V10.0231H16.3249C14.3613 10.0231 13.917 10.0385 13.8905 10.1075ZM8.12945 12.4542V12.953H10.5294H12.9294V12.4542V11.9555H10.5294H8.12945V12.4542ZM13.8905 12.04C13.8727 12.0865 13.8666 12.3039 13.8769 12.5231L13.8957 12.9218L14.5035 12.9396C15.0792 12.9565 15.1113 12.9508 15.1113 12.8305C15.1113 12.7452 15.1521 12.7036 15.2359 12.7036C15.319 12.7036 15.3606 12.662 15.3606 12.5789C15.3606 12.478 15.4022 12.4542 15.5788 12.4542C15.7554 12.4542 15.797 12.4305 15.797 12.3296C15.797 12.2381 15.8386 12.2049 15.9528 12.2049C16.0671 12.2049 16.1087 12.1717 16.1087 12.0802C16.1087 11.9603 16.0671 11.9555 15.0158 11.9555C14.1537 11.9555 13.9161 11.9734 13.8905 12.04ZM17.9788 12.54C17.9788 12.629 17.7195 12.7036 17.41 12.7036C17.2972 12.7036 17.2307 12.7362 17.2307 12.7916C17.2307 12.8457 17.1347 12.8959 16.9814 12.9218C16.8327 12.9469 16.732 12.9983 16.732 13.0491C16.732 13.0971 16.6369 13.1522 16.5139 13.1752C16.3889 13.1987 16.2957 13.2532 16.2957 13.3027C16.2957 13.3504 16.2396 13.3893 16.171 13.3893C16.0879 13.3893 16.0463 13.4309 16.0463 13.514C16.0463 13.6149 16.0048 13.6387 15.8281 13.6387C15.6515 13.6387 15.61 13.6624 15.61 13.7633C15.61 13.8464 15.5684 13.888 15.4853 13.888C15.4022 13.888 15.3606 13.9296 15.3606 14.0127C15.3606 14.0934 15.319 14.1374 15.2429 14.1374C15.1577 14.1374 15.1138 14.1976 15.0842 14.3555C15.0597 14.4861 15.0068 14.5737 14.9526 14.5737C14.9027 14.5737 14.8619 14.6298 14.8619 14.6984C14.8619 14.7815 14.8203 14.8231 14.7372 14.8231C14.6333 14.8231 14.6126 14.8647 14.6126 15.0724C14.6126 15.2802 14.5918 15.3218 14.4879 15.3218C14.387 15.3218 14.3632 15.3634 14.3632 15.54C14.3632 15.6835 14.3339 15.7581 14.2775 15.7581C14.1884 15.7581 14.1139 16.0174 14.1139 16.327C14.1139 16.4369 14.0809 16.5062 14.0287 16.5062C13.9643 16.5062 13.9361 16.6602 13.9131 17.1376C13.8681 18.0732 13.9236 18.9374 14.0288 18.9374C14.0809 18.9374 14.1139 19.0068 14.1139 19.1166C14.1139 19.4262 14.1884 19.6854 14.2775 19.6854C14.3344 19.6854 14.3632 19.7609 14.3632 19.9095C14.3632 20.081 14.3924 20.1411 14.4879 20.166C14.5816 20.1905 14.6126 20.2511 14.6126 20.4096C14.6126 20.5789 14.6371 20.6205 14.7372 20.6205C14.8203 20.6205 14.8619 20.6621 14.8619 20.7452C14.8619 20.8137 14.9027 20.8698 14.9526 20.8698C15.0068 20.8698 15.0597 20.9574 15.0842 21.088C15.1138 21.2459 15.1577 21.3062 15.2429 21.3062C15.319 21.3062 15.3606 21.3502 15.3606 21.4309C15.3606 21.5034 15.4022 21.5555 15.46 21.5555C15.5146 21.5555 15.574 21.6117 15.5919 21.6802C15.6164 21.7739 15.6769 21.8049 15.8354 21.8049C16.0048 21.8049 16.0463 21.8295 16.0463 21.9296C16.0463 22.0127 16.0879 22.0542 16.171 22.0542C16.2541 22.0542 16.2957 22.0958 16.2957 22.1789C16.2957 22.279 16.3373 22.3036 16.5066 22.3036C16.6651 22.3036 16.7256 22.3346 16.7501 22.4283C16.7751 22.5238 16.8352 22.5529 17.0067 22.5529C17.1553 22.5529 17.2307 22.5818 17.2307 22.6387C17.2307 22.7277 17.49 22.8023 17.7996 22.8023C17.9173 22.8023 17.9788 22.8343 17.9788 22.8958C17.9788 22.9724 18.0861 22.9893 18.571 22.9893H19.1632V22.5218V22.0542H18.8145C18.5183 22.0542 18.4609 22.0355 18.4332 21.9296C18.4047 21.8204 18.3482 21.8049 17.9788 21.8049C17.6094 21.8049 17.5529 21.7894 17.5244 21.6802C17.4997 21.5857 17.4393 21.5555 17.275 21.5555C17.1107 21.5555 17.0504 21.5254 17.0257 21.4309C17.0061 21.3563 16.9406 21.3062 16.8626 21.3062C16.7899 21.3062 16.732 21.266 16.732 21.2155C16.732 21.1613 16.6445 21.1084 16.5139 21.0839C16.356 21.0543 16.2957 21.0104 16.2957 20.9253C16.2957 20.8605 16.2536 20.8075 16.2022 20.8075C16.1507 20.8075 16.1087 20.7628 16.1087 20.7081C16.1087 20.6535 16.0532 20.5943 15.9855 20.5766C15.9054 20.5557 15.8485 20.4706 15.8227 20.3331C15.8003 20.2134 15.7456 20.1218 15.6966 20.1218C15.6489 20.1218 15.61 20.0771 15.61 20.0224C15.61 19.9678 15.5539 19.9084 15.4853 19.8905C15.3908 19.8658 15.3606 19.8055 15.3606 19.6412C15.3606 19.4768 15.3304 19.4165 15.2359 19.3918C15.1307 19.3643 15.1113 19.3068 15.1113 19.0236C15.1113 18.7296 15.0958 18.688 14.9866 18.688C14.8675 18.688 14.8619 18.6464 14.8619 17.7602C14.8619 16.8848 14.869 16.8306 14.9866 16.7998C15.0925 16.7721 15.1113 16.7148 15.1113 16.4186C15.1113 16.1114 15.1261 16.0698 15.2359 16.0698C15.3399 16.0698 15.3606 16.0283 15.3606 15.8205C15.3606 15.6127 15.3814 15.5711 15.4853 15.5711C15.5684 15.5711 15.61 15.5296 15.61 15.4465C15.61 15.3779 15.6489 15.3218 15.6966 15.3218C15.7461 15.3218 15.8006 15.2286 15.824 15.1036C15.8499 14.9658 15.9005 14.8854 15.9615 14.8854C16.0146 14.8854 16.0727 14.8293 16.0906 14.7607C16.1085 14.6922 16.162 14.6361 16.2095 14.6361C16.2568 14.6361 16.2957 14.5831 16.2957 14.5183C16.2957 14.4332 16.356 14.3893 16.5139 14.3597C16.6445 14.3352 16.732 14.2823 16.732 14.2281C16.732 14.1729 16.7931 14.1374 16.8879 14.1374C17.0022 14.1374 17.0437 14.1041 17.0437 14.0127C17.0437 13.9088 17.0853 13.888 17.2931 13.888C17.5009 13.888 17.5424 13.8673 17.5424 13.7633C17.5424 13.6538 17.584 13.6387 17.8853 13.6387C18.1371 13.6387 18.2281 13.6155 18.2281 13.5516C18.2281 13.4881 18.3625 13.4527 18.726 13.4205C19.373 13.3633 20.0983 13.4325 20.0983 13.5515C20.0983 13.6165 20.1935 13.6387 20.4723 13.6387C20.8048 13.6387 20.8463 13.6525 20.8463 13.7633C20.8463 13.8673 20.8879 13.888 21.0957 13.888C21.3035 13.888 21.345 13.9088 21.345 14.0127C21.345 14.0958 21.3866 14.1374 21.4697 14.1374C21.5383 14.1374 21.5944 14.1782 21.5944 14.2281C21.5944 14.2823 21.682 14.3352 21.8126 14.3597C21.9454 14.3846 22.0307 14.4368 22.0307 14.493C22.0307 14.5438 22.0868 14.6001 22.1554 14.618C22.224 14.6359 22.2801 14.692 22.2801 14.7427C22.2801 14.7933 22.3336 14.8488 22.3989 14.8658C22.4746 14.8856 22.5322 14.974 22.5576 15.1093C22.5812 15.2354 22.6343 15.3218 22.6881 15.3218C22.738 15.3218 22.7788 15.3779 22.7788 15.4465C22.7788 15.5296 22.8204 15.5711 22.9035 15.5711C23.0074 15.5711 23.0281 15.6127 23.0281 15.8205C23.0281 15.9912 23.0553 16.0698 23.1144 16.0698C23.224 16.0698 23.2756 16.263 23.2766 16.6776C23.2773 16.9266 23.2999 17.0049 23.371 17.0049C23.4489 17.0049 23.4645 17.1296 23.4645 17.753C23.4645 18.3763 23.4489 18.501 23.371 18.501C23.3011 18.501 23.2773 18.5759 23.2766 18.7971C23.2756 19.1819 23.2216 19.3737 23.1144 19.3737C23.0553 19.3737 23.0281 19.4523 23.0281 19.6231C23.0281 19.8309 23.0074 19.8724 22.9035 19.8724C22.8229 19.8724 22.7788 19.914 22.7788 19.9898C22.7788 20.0548 22.7231 20.1218 22.6541 20.1399C22.5634 20.1636 22.5294 20.2249 22.5294 20.3653C22.5294 20.5002 22.4996 20.5581 22.4301 20.5581C22.3755 20.5581 22.3161 20.6143 22.2982 20.6828C22.2802 20.7514 22.2267 20.8075 22.1793 20.8075C22.1103 20.8075 22.0931 20.6455 22.0931 19.9971V19.1867H21.5944H21.0957V20.8698V22.5529H22.7788H24.4619V22.0542V21.5555H23.7066C22.9537 21.5555 22.9514 21.5551 22.9889 21.4153C23.0095 21.3381 23.0268 21.24 23.0273 21.1971C23.0278 21.1543 23.0843 21.1192 23.1528 21.1192C23.2359 21.1192 23.2775 21.0776 23.2775 20.9945C23.2775 20.9114 23.3191 20.8698 23.4022 20.8698C23.4853 20.8698 23.5268 20.8283 23.5268 20.7452C23.5268 20.6766 23.5664 20.6205 23.6149 20.6205C23.669 20.6205 23.7192 20.5244 23.745 20.3711C23.769 20.2296 23.8222 20.1218 23.8683 20.1218C23.9128 20.1218 23.9678 20.0236 23.9903 19.9036C24.0148 19.773 24.0676 19.6854 24.1219 19.6854C24.1912 19.6854 24.2126 19.5971 24.2126 19.3114C24.2126 18.9789 24.2264 18.9374 24.3372 18.9374C24.4577 18.9374 24.4619 18.8958 24.4619 17.7218C24.4619 16.7284 24.4461 16.5062 24.3757 16.5062C24.2742 16.5062 24.2146 16.3174 24.2134 15.9919C24.2128 15.8293 24.1849 15.7581 24.1219 15.7581C24.0676 15.7581 24.0148 15.6706 23.9903 15.54C23.9678 15.42 23.9128 15.3218 23.8683 15.3218C23.8222 15.3218 23.769 15.2139 23.745 15.0724C23.7192 14.9191 23.669 14.8231 23.6149 14.8231C23.5664 14.8231 23.5268 14.767 23.5268 14.6984C23.5268 14.6153 23.4853 14.5737 23.4022 14.5737C23.3012 14.5737 23.2775 14.5322 23.2775 14.3555C23.2775 14.1789 23.2537 14.1374 23.1528 14.1374C23.0697 14.1374 23.0281 14.0958 23.0281 14.0127C23.0281 13.9296 22.9866 13.888 22.9035 13.888C22.8204 13.888 22.7788 13.8464 22.7788 13.7633C22.7788 13.6624 22.7372 13.6387 22.5606 13.6387C22.384 13.6387 22.3424 13.6149 22.3424 13.514C22.3424 13.4309 22.3009 13.3893 22.2178 13.3893C22.1492 13.3893 22.0931 13.3497 22.0931 13.3013C22.0931 13.2472 21.997 13.197 21.8437 13.1711C21.6995 13.1468 21.5944 13.0942 21.5944 13.0465C21.5944 12.9987 21.4892 12.9462 21.345 12.9218C21.1917 12.8959 21.0957 12.8457 21.0957 12.7916C21.0957 12.734 21.0256 12.7033 20.8931 12.7027C20.597 12.7015 20.41 12.6387 20.41 12.5405C20.41 12.47 20.1878 12.4542 19.1944 12.4542C18.2045 12.4542 17.9788 12.4701 17.9788 12.54ZM8.14241 14.3711L8.16062 14.8542L10.545 14.8706L12.9294 14.8869V14.3875V13.888H10.5268H8.12421L8.14241 14.3711ZM8.12945 16.288V16.7555H10.5294H12.9294V16.288V15.8205H10.5294H8.12945V16.288Z" fill="url(#paint0_linear_854_2226)"/>
    <defs>
        <linearGradient id="paint0_linear_854_2226" x1="12.4619" y1="0.42308" x2="12.4619" y2="22.9893" gradientUnits="userSpaceOnUse">
            <stop stop-color="#6E6CCE"/>
            <stop offset="1" stop-color="#514ED7"/>
        </linearGradient>
    </defs>
</svg>
