<svg width="16" height="16" viewBox="0 0 16 16" fill="none" xmlns="http://www.w3.org/2000/svg">
    <path d="M11.1051 6.191C12.065 6.79088 12.5449 7.09082 12.7095 7.47488C12.8532 7.81022 12.8532 8.18988 12.7095 8.52528C12.5449 8.90928 12.065 9.20922 11.1051 9.80915L6.59701 12.6268C5.53171 13.2926 4.99905 13.6255 4.55949 13.5901C4.17635 13.5593 3.82513 13.3647 3.59594 13.0561C3.33301 12.7021 3.33301 12.074 3.33301 10.8177V5.18246C3.33301 3.92621 3.33301 3.29809 3.59594 2.94407C3.82513 2.63548 4.17635 2.44082 4.55949 2.41002C4.99905 2.37468 5.53171 2.70759 6.59701 3.3734L11.1051 6.191Z" fill="#6A5AE0" stroke="#6A5AE0" stroke-width="1.6" stroke-linejoin="round"/>
</svg>
