<svg width="94" height="94" viewBox="0 0 94 94" fill="none" xmlns="http://www.w3.org/2000/svg">
    <g clip-path="url(#clip0_854_2410)">
        <path d="M94 47C94 21.0426 72.9574 0 47 0C21.0426 0 0 21.0426 0 47C0 72.9574 21.0426 94 47 94C72.9574 94 94 72.9574 94 47Z" fill="#6F6FFB"/>
        <path d="M26.4375 61.6875C30.4933 61.6875 33.7812 58.3996 33.7812 54.3438C33.7812 50.2879 30.4933 47 26.4375 47C22.3817 47 19.0938 50.2879 19.0938 54.3438C19.0938 58.3996 22.3817 61.6875 26.4375 61.6875Z" fill="#F0BD70"/>
        <path d="M26.4375 60.2188H51.4062V96.7466C51.4062 96.7466 46.0556 99.875 38.9219 99.875C31.7882 99.875 26.4375 94.7682 26.4375 94.7682V60.2188Z" fill="#F0BD70"/>
        <path d="M51.4057 79.1186C51.4057 87.4229 50.1102 86.6357 41.687 86.6357C33.2637 86.6357 29.3774 79.9044 29.3774 71.6001C29.3774 63.2958 29.0572 55.8125 35.8546 55.8125C55.0776 56.5469 51.4057 70.8143 51.4057 79.1186Z" fill="#E9B05B"/>
        <path d="M67.3961 53.0219C67.3961 66.1261 72.8099 82.2397 49.2042 82.2397C25.5984 82.2397 25.5984 66.1261 25.5984 53.0219C22.0323 37.4531 22.7667 19.0938 47.0011 19.0938C71.2354 19.0938 67.3961 39.9162 67.3961 53.0219Z" fill="#FFCB7E"/>
        <path d="M55.8125 60.2188H54.3438C53.5326 60.2188 52.875 60.8763 52.875 61.6875C52.875 62.4987 53.5326 63.1562 54.3438 63.1562H55.8125C56.6237 63.1562 57.2812 62.4987 57.2812 61.6875C57.2812 60.8763 56.6237 60.2188 55.8125 60.2188Z" fill="#F0BD70"/>
        <path d="M55.8125 88.125H23.5C16.1995 88.125 10.2812 94.0432 10.2812 101.344V108.688C10.2812 115.988 16.1995 121.906 23.5 121.906H55.8125C63.113 121.906 69.0312 115.988 69.0312 108.688V101.344C69.0312 94.0432 63.113 88.125 55.8125 88.125Z" fill="#339BE0"/>
        <path fill-rule="evenodd" clip-rule="evenodd" d="M67.5149 47.7094C68.734 47.0214 69.6673 45.9206 70.1466 44.6054C70.6259 43.2902 70.6198 41.8471 70.1293 40.536C71.47 39.8897 72.5155 38.7585 73.0544 37.371C73.5933 35.9836 73.5855 34.4433 73.0325 33.0613C72.4796 31.6794 71.4227 30.5589 70.0754 29.9262C68.7282 29.2934 67.191 29.1957 65.7744 29.6526C67.8556 35.0488 67.7029 41.7228 67.5149 47.7094Z" fill="#47280B"/>
        <path fill-rule="evenodd" clip-rule="evenodd" d="M53.3112 33.4288C51.9728 34.6054 50.2509 35.253 48.4688 35.25C46.8434 35.2526 45.2636 34.7136 43.9788 33.7181C43.0254 34.6711 41.8935 35.4267 40.6477 35.9416C39.4019 36.4565 38.0668 36.7206 36.7188 36.7188C35.701 36.7194 34.6887 36.569 33.7152 36.2723C33.3323 36.6912 32.8911 37.0529 32.405 37.3459C32.9832 38.0339 33.3959 38.8454 33.6112 39.7179C33.8266 40.5904 33.8389 41.5007 33.6473 42.3787C33.4556 43.2567 33.0651 44.0791 32.5057 44.7825C31.9463 45.4859 31.2331 46.0515 30.4208 46.436C30.6632 46.7681 30.8078 47.1614 30.8384 47.5714C30.8689 47.9814 30.7841 48.3918 30.5935 48.7561C30.4029 49.1205 30.1142 49.4242 29.76 49.633C29.4058 49.8417 29.0003 49.9472 28.5892 49.9375C27.8692 51.1903 26.7128 52.1338 25.3409 52.5877C23.9691 53.0415 22.4782 52.9739 21.153 52.3978C19.8279 51.8217 18.7616 50.7774 18.1579 49.4646C17.5542 48.1518 17.4555 46.6626 17.8806 45.2816C17.3333 44.7367 16.8991 44.0889 16.6032 43.3755C16.3073 42.6622 16.1554 41.8973 16.1563 41.125C16.1563 39.5006 16.8157 38.0303 17.8806 36.9684C17.5969 36.0406 17.5474 35.057 17.7366 34.1054C17.9257 33.1537 18.3476 32.2638 18.9645 31.515C18.2004 30.1686 17.7501 28.6671 17.6471 27.1225C17.5442 25.5779 17.7912 24.0299 18.3698 22.5941C18.9483 21.1582 19.8436 19.8714 20.9887 18.8297C22.1339 17.788 23.4994 17.0183 24.9834 16.5778C24.9071 15.5222 25.1173 14.4657 25.5918 13.5197C26.0664 12.5738 26.7876 11.7736 27.6793 11.2037C28.5711 10.6338 29.6002 10.3153 30.6579 10.2819C31.7157 10.2486 32.7629 10.5016 33.6887 11.0142C34.591 9.451 35.8891 8.15306 37.4524 7.2509C39.0156 6.34874 40.7889 5.87419 42.5938 5.875C44.6103 5.875 46.4918 6.45516 48.0795 7.45978C49.1701 6.28495 50.5389 5.40354 52.0597 4.89682C53.5806 4.39009 55.2045 4.27435 56.7818 4.56026C58.3591 4.84616 59.8391 5.52452 61.0853 6.5328C62.3315 7.54108 63.3038 8.84684 63.9127 10.3297C64.6897 10.4304 65.4387 10.6856 66.1156 11.0801C66.7925 11.4746 67.3837 12.0005 67.8544 12.6269C68.325 13.2533 68.6656 13.9675 68.8561 14.7275C69.0466 15.4874 69.0832 16.2779 68.9637 17.0522C71.6882 19.0703 73.4375 22.1958 73.4375 25.7031C73.4375 31.7867 68.1764 36.7188 61.6875 36.7188C58.4078 36.7188 55.4424 35.4586 53.3112 33.4288Z" fill="#47280B"/>
        <path d="M42.4893 67.5625C42.4893 67.173 42.644 66.7994 42.9194 66.5239C43.1949 66.2485 43.5685 66.0938 43.958 66.0938H57.3868C57.7763 66.0938 58.1499 66.2485 58.4254 66.5239C58.7008 66.7994 58.8555 67.173 58.8555 67.5625C58.8555 69.5102 58.0818 71.3781 56.7046 72.7553C55.3274 74.1325 53.4595 74.9062 51.5118 74.9062H49.833C47.8853 74.9062 46.0174 74.1325 44.6402 72.7553C43.263 71.3781 42.4893 69.5102 42.4893 67.5625Z" fill="#66253C"/>
        <path fill-rule="evenodd" clip-rule="evenodd" d="M53.9847 74.4803C53.1913 74.7633 52.3551 74.9074 51.5127 74.9063H49.834C47.9371 74.9063 46.1139 74.1723 44.7461 72.8582C43.3782 71.544 42.572 69.7516 42.4961 67.8563C43.6182 67.4362 45.2838 67.4847 46.9273 67.5331C47.4502 67.5478 47.9701 67.5625 48.4695 67.5625C51.7154 67.5625 54.3445 69.864 54.3445 72.7031C54.3445 73.3274 54.2167 73.9266 53.9847 74.4803Z" fill="#B03E67"/>
        <path d="M44.0625 66.0938H58.75V67.5625C58.75 67.952 58.5953 68.3256 58.3198 68.6011C58.0444 68.8765 57.6708 69.0312 57.2812 69.0312H45.5312C45.1417 69.0312 44.7681 68.8765 44.4927 68.6011C44.2172 68.3256 44.0625 67.952 44.0625 67.5625V66.0938Z" fill="white"/>
        <path d="M48.4688 55.0781C48.4688 53.8614 47.4824 52.875 46.2656 52.875C45.0489 52.875 44.0625 53.8614 44.0625 55.0781V56.5469C44.0625 57.7636 45.0489 58.75 46.2656 58.75C47.4824 58.75 48.4688 57.7636 48.4688 56.5469V55.0781Z" fill="#1B0B47"/>
        <path d="M63.1562 55.0781C63.1562 53.8614 62.1699 52.875 60.9531 52.875C59.7364 52.875 58.75 53.8614 58.75 55.0781V56.5469C58.75 57.7636 59.7364 58.75 60.9531 58.75C62.1699 58.75 63.1562 57.7636 63.1562 56.5469V55.0781Z" fill="#1B0B47"/>
        <path d="M40.3906 57.2812H37.4531C36.2364 57.2812 35.25 58.2676 35.25 59.4844C35.25 60.7011 36.2364 61.6875 37.4531 61.6875H40.3906C41.6074 61.6875 42.5938 60.7011 42.5938 59.4844C42.5938 58.2676 41.6074 57.2812 40.3906 57.2812Z" fill="#FF859B"/>
        <path d="M66.8281 57.2812H65.3594C64.1426 57.2812 63.1562 58.2676 63.1562 59.4844C63.1562 60.7011 64.1426 61.6875 65.3594 61.6875H66.8281C68.0449 61.6875 69.0312 60.7011 69.0312 59.4844C69.0312 58.2676 68.0449 57.2812 66.8281 57.2812Z" fill="#FF859B"/>
    </g>
    <defs>
        <clipPath id="clip0_854_2410">
            <rect width="94" height="94" rx="47" fill="white"/>
        </clipPath>
    </defs>
</svg>
