<svg width="28" height="28" viewBox="0 0 28 28" fill="none" xmlns="http://www.w3.org/2000/svg">
    <path d="M3.44086 21.5576L3.44063 21.5577C3.52053 21.6909 3.55029 21.8419 3.52842 21.9732C3.50733 22.0997 3.43244 22.2252 3.29115 22.2673M3.44086 21.5576L3.24699 22.1524M3.44086 21.5576L3.4362 21.5509C2.34429 19.9785 1.81866 18.0982 1.81866 16.1707C1.81866 10.8766 6.10646 6.54522 11.4442 6.54522C13.3264 6.54522 15.1195 7.07039 16.6497 8.07591L16.6496 8.076L16.6539 8.07858C16.9238 8.24052 17.269 8.19238 17.4423 7.90364C17.6039 7.63424 17.5563 7.28982 17.269 7.11625C15.5228 5.99731 13.5067 5.36977 11.4442 5.36977C5.52805 5.36977 0.687515 10.1653 0.687515 16.1264C0.687515 18.2775 1.31504 20.3395 2.52495 22.132M3.44086 21.5576L2.62667 22.0638M3.29115 22.2673C3.28641 22.2687 3.28159 22.27 3.2767 22.2713L3.24699 22.1524M3.29115 22.2673C3.29128 22.2672 3.2914 22.2672 3.29153 22.2671L3.30177 22.262L3.24699 22.1524M3.29115 22.2673C3.21035 22.3078 3.09904 22.3635 2.98113 22.3635C2.82006 22.3635 2.64254 22.3082 2.52495 22.132M3.24699 22.1524C3.15837 22.1967 3.06975 22.241 2.98113 22.241C2.84821 22.241 2.71529 22.1967 2.62667 22.0638M2.52495 22.132C2.52502 22.1321 2.52508 22.1322 2.52515 22.1323L2.62667 22.0638M2.52495 22.132C2.52489 22.1319 2.52482 22.1318 2.52476 22.1318L2.62667 22.0638" fill="#6A5AE0" stroke="#6A5AE0" stroke-width="0.244964"/>
    <path d="M19.4475 10.9166L19.4474 10.9167L19.4507 10.9215C20.5001 12.4957 21.0252 14.2886 21.0252 16.215C21.0252 21.5091 16.7374 25.8405 11.3997 25.8405C8.64351 25.8405 6.0186 24.6593 4.18092 22.5591L4.18112 22.559L4.17535 22.5532C3.96734 22.3452 3.62232 22.2684 3.38181 22.5089C3.17461 22.7161 3.09759 23.0592 3.33471 23.2996C5.39538 25.6276 8.30751 26.9716 11.3997 26.9716C17.3158 26.9716 22.1564 22.1761 22.1564 16.215C22.1564 14.1076 21.5285 12.0914 20.4097 10.3013L20.4059 10.2953L20.4015 10.2897C20.1948 10.0314 19.8594 9.95442 19.6172 10.1315C19.3332 10.3058 19.2866 10.6484 19.4475 10.9166Z" fill="#6A5AE0" stroke="#6A5AE0" stroke-width="0.244964"/>
    <path d="M14.5201 10.4384L14.5202 10.4383L14.5139 10.435C13.566 9.93849 12.4831 9.66774 11.3997 9.66774C7.83166 9.66774 4.89674 12.6027 4.89674 16.1707C4.89674 19.7388 7.83166 22.6737 11.3997 22.6737C14.9678 22.6737 17.9027 19.7388 17.9027 16.1707C17.9027 15.0405 17.5864 13.9128 17.0459 12.9218L17.046 12.9218L17.0434 12.9175C16.8711 12.6304 16.5332 12.5852 16.2725 12.6895L16.2634 12.6932L16.255 12.6982C15.9679 12.8705 15.9228 13.2083 16.0271 13.469L16.0303 13.4773L16.0348 13.4849C16.5102 14.3061 16.7272 15.2149 16.7272 16.1707C16.7272 19.1161 14.3008 21.5425 11.3554 21.5425C8.41004 21.5425 5.98358 19.1161 5.98358 16.1707C5.98358 13.2254 8.41004 10.7989 11.3554 10.7989C12.266 10.7989 13.1316 11.0156 13.9101 11.4481L13.9101 11.4482L13.9149 11.4506C14.2369 11.6116 14.5729 11.5042 14.7393 11.2268C14.9124 10.9383 14.7902 10.6005 14.5201 10.4384Z" fill="#6A5AE0" stroke="#6A5AE0" stroke-width="0.244964"/>
    <path d="M11.3996 14.7424C11.5603 14.7424 11.7038 14.6883 11.8074 14.5847C11.911 14.4811 11.9652 14.3376 11.9652 14.1769C11.9652 14.0161 11.911 13.8726 11.8074 13.769C11.7038 13.6654 11.5603 13.6113 11.3996 13.6113C10.0027 13.6113 8.8401 14.7738 8.8401 16.1708C8.8401 17.5677 10.0027 18.7302 11.3996 18.7302C12.7965 18.7302 13.9591 17.5677 13.9591 16.1708C13.9591 16.01 13.9049 15.8665 13.8013 15.7629C13.6977 15.6593 13.5542 15.6052 13.3935 15.6052C13.2327 15.6052 13.0892 15.6593 12.9856 15.7629C12.882 15.8665 12.8279 16.01 12.8279 16.1708C12.8279 16.945 12.1738 17.5991 11.3996 17.5991C10.6254 17.5991 9.97125 16.945 9.97125 16.1708C9.97125 15.3965 10.6254 14.7424 11.3996 14.7424Z" fill="#6A5AE0" stroke="#6A5AE0" stroke-width="0.244964"/>
    <path d="M19.3344 3.67625L19.3344 3.67624L19.333 3.67759C19.2199 3.79068 19.1642 3.95544 19.1642 4.07436V7.74539L11.0032 15.8623L11.0029 15.8626C10.7779 16.0876 10.7779 16.431 11.0029 16.6561C11.116 16.7692 11.2808 16.8249 11.3997 16.8249C11.5186 16.8249 11.6834 16.7692 11.7965 16.6561L19.9578 8.49482H23.5847C23.6654 8.49482 23.7382 8.48121 23.8061 8.45103C23.8735 8.42108 23.9299 8.37756 23.9814 8.32602L23.9828 8.32465L26.7736 5.44521C26.8581 5.36037 26.9132 5.24932 26.9341 5.1382C26.9543 5.0303 26.9442 4.90979 26.8812 4.81077C26.8301 4.7105 26.7629 4.62807 26.6767 4.57062C26.5879 4.51145 26.4862 4.48359 26.3761 4.48359H23.1754V1.2829C23.1754 1.0778 23.073 0.837079 22.8301 0.768805C22.6035 0.661476 22.3758 0.723884 22.2138 0.88542L19.3344 3.67625ZM20.2511 4.25883L22 2.54876V4.77688L20.6623 6.11459L20.2511 6.52582V4.25883ZM25.066 5.61473L23.3559 7.36367H21.0889L22.4749 5.97764L22.5192 5.93333L22.8378 5.61473H25.066Z" fill="#6A5AE0" stroke="#6A5AE0" stroke-width="0.244964"/>
</svg>
