<svg width="22" height="22" viewBox="0 0 22 22" fill="none" xmlns="http://www.w3.org/2000/svg">
    <path d="M1.43024 11.095L3.59783 8.92741M3.59783 8.92741L11.1844 1.34082L18.771 8.92741M3.59783 8.92741V19.7654C3.59783 20.0528 3.71202 20.3285 3.91527 20.5318C4.11852 20.735 4.39419 20.8492 4.68163 20.8492H7.93303C8.22047 20.8492 8.49614 20.735 8.69939 20.5318C8.90264 20.3285 9.01683 20.0528 9.01683 19.7654V15.4302C9.01683 15.1428 9.13101 14.8671 9.33427 14.6638C9.53752 14.4606 9.81319 14.3464 10.1006 14.3464H12.2682C12.5557 14.3464 12.8313 14.4606 13.0346 14.6638C13.2378 14.8671 13.352 15.1428 13.352 15.4302V19.7654C13.352 20.0528 13.4662 20.3285 13.6695 20.5318C13.8727 20.735 14.1484 20.8492 14.4358 20.8492H17.6872C17.9747 20.8492 18.2503 20.735 18.4536 20.5318C18.6568 20.3285 18.771 20.0528 18.771 19.7654V8.92741M18.771 8.92741L20.9386 11.095" stroke="#6A5AE0" stroke-width="1.95084" stroke-linecap="round" stroke-linejoin="round"/>
</svg>
