<svg width="27" height="27" viewBox="0 0 27 27" fill="none" xmlns="http://www.w3.org/2000/svg">
    <path d="M3.43024 13.095L5.59783 10.9274M5.59783 10.9274L13.1844 3.34082L20.771 10.9274M5.59783 10.9274V21.7654C5.59783 22.0528 5.71202 22.3285 5.91527 22.5318C6.11852 22.735 6.39419 22.8492 6.68163 22.8492H9.93303C10.2205 22.8492 10.4961 22.735 10.6994 22.5318C10.9026 22.3285 11.0168 22.0528 11.0168 21.7654V17.4302C11.0168 17.1428 11.131 16.8671 11.3343 16.6638C11.5375 16.4606 11.8132 16.3464 12.1006 16.3464H14.2682C14.5557 16.3464 14.8313 16.4606 15.0346 16.6638C15.2378 16.8671 15.352 17.1428 15.352 17.4302V21.7654C15.352 22.0528 15.4662 22.3285 15.6695 22.5318C15.8727 22.735 16.1484 22.8492 16.4358 22.8492H19.6872C19.9747 22.8492 20.2503 22.735 20.4536 22.5318C20.6568 22.3285 20.771 22.0528 20.771 21.7654V10.9274M20.771 10.9274L22.9386 13.095" stroke="#CCCCCC" stroke-width="1.95084" stroke-linecap="round" stroke-linejoin="round"/>
</svg>
