<svg width="27" height="27" viewBox="0 0 27 27" fill="none" xmlns="http://www.w3.org/2000/svg">
    <path fill-rule="evenodd" clip-rule="evenodd" d="M4.66194 8.75981C4.66194 5.76698 7.08811 3.34082 10.0809 3.34082H18.4804C21.4732 3.34082 23.8994 5.76699 23.8994 8.75981V17.4302C23.8994 20.423 21.4732 22.8492 18.4804 22.8492H3.30719C2.9089 22.8492 2.5427 22.6307 2.35349 22.2803C2.16428 21.9298 2.18256 21.5038 2.40108 21.1708L4.12886 18.538C4.47665 18.008 4.66194 17.3879 4.66194 16.7541V8.75981ZM10.0809 5.50842C8.28523 5.50842 6.82954 6.96412 6.82954 8.75981V16.7541C6.82954 17.8105 6.52072 18.844 5.94108 19.7272L5.31477 20.6816H18.4804C20.2761 20.6816 21.7318 19.2259 21.7318 17.4302V8.75981C21.7318 6.96412 20.2761 5.50842 18.4804 5.50842H10.0809Z" fill="#CCCCCC"/>
</svg>
