<svg width="28" height="22" viewBox="0 0 28 22" fill="none" xmlns="http://www.w3.org/2000/svg">
    <path d="M17.6639 10.754C14.5594 12.1989 12.9849 12.1749 9.88055 10.754C10.0074 7.31661 11.1445 5.13269 13.739 5.13269C16.5663 5.13271 17.5371 7.31661 17.6639 10.754Z" stroke="#CCCCCC" stroke-width="1.73408"/>
    <path d="M4.72495 19.7682H3.59403C2.12441 19.7682 0.933044 18.5768 0.933044 17.1072V4.00181C0.933044 2.53218 2.12441 1.34082 3.59403 1.34082H24.2832C25.7528 1.34082 26.9442 2.53219 26.9442 4.00181V17.1072C26.9442 18.5768 25.7529 19.7682 24.2832 19.7682H23.119" stroke="#CCCCCC" stroke-width="1.73408" stroke-linecap="round"/>
    <path d="M20.6244 20.1673C19.8594 17.0074 17.6162 14.3131 13.9054 14.3131C10.1946 14.3131 7.81839 17.0739 7.1864 20.1673" stroke="#CCCCCC" stroke-width="1.73408" stroke-linecap="round"/>
</svg>
