<svg width="18" height="18" viewBox="0 0 18 18" fill="none" xmlns="http://www.w3.org/2000/svg">
    <path d="M9 5.24976C6.92893 5.24976 5.25 6.92869 5.25 8.99976C5.25 10.0207 5.65801 10.9464 6.31988 11.6227C6.57769 11.8861 6.78961 12.1995 6.86192 12.5609L7.25875 14.5441C7.39903 15.2452 8.01465 15.7498 8.72962 15.7498H9.27038C9.98535 15.7498 10.601 15.2452 10.7413 14.5441L11.1381 12.5609C11.2104 12.1995 11.4223 11.8861 11.6801 11.6227C12.342 10.9464 12.75 10.0207 12.75 8.99976C12.75 6.92869 11.071 5.24976 9 5.24976Z" stroke="#3629B7" stroke-width="0.9"/>
    <path d="M9 3V2.25" stroke="#3629B7" stroke-width="0.9" stroke-linecap="round" stroke-linejoin="round"/>
    <path d="M13.5 4.49988L14.25 3.74988" stroke="#3629B7" stroke-width="0.9" stroke-linecap="round" stroke-linejoin="round"/>
    <path d="M15.001 9H15.751" stroke="#3629B7" stroke-width="0.9" stroke-linecap="round" stroke-linejoin="round"/>
    <path d="M3 9H2.25" stroke="#3629B7" stroke-width="0.9" stroke-linecap="round" stroke-linejoin="round"/>
    <path d="M3.75098 3.74988L4.50098 4.49988" stroke="#3629B7" stroke-width="0.9" stroke-linecap="round" stroke-linejoin="round"/>
    <path d="M7.5 12.7499H10.5" stroke="#3629B7" stroke-width="0.9" stroke-linecap="round" stroke-linejoin="round"/>
</svg>
