<svg width="40" height="40" viewBox="0 0 40 40" fill="none" xmlns="http://www.w3.org/2000/svg">
    <path d="M11.1513 27.1514C10.6826 27.6201 10.6826 28.3798 11.1513 28.8484C11.6199 29.317 12.3797 29.317 12.8483 28.8484L11.1513 27.1514ZM20.8483 20.8484C21.3169 20.3798 21.3169 19.6201 20.8483 19.1514C20.3796 18.6828 19.62 18.6828 19.1513 19.1514L20.8483 20.8484ZM19.1513 19.1514C18.6827 19.6201 18.6827 20.3798 19.1513 20.8484C19.62 21.317 20.3796 21.317 20.8483 20.8484L19.1513 19.1514ZM28.8483 12.8485C29.3169 12.3798 29.3169 11.62 28.8483 11.1514C28.3796 10.6828 27.62 10.6828 27.1513 11.1514L28.8483 12.8485ZM20.8483 19.1514C20.3796 18.6828 19.62 18.6828 19.1513 19.1514C18.6827 19.6201 18.6827 20.3798 19.1513 20.8484L20.8483 19.1514ZM27.1513 28.8484C27.62 29.317 28.3796 29.317 28.8483 28.8484C29.3169 28.3798 29.3169 27.6201 28.8483 27.1514L27.1513 28.8484ZM19.1513 20.8484C19.62 21.317 20.3796 21.317 20.8483 20.8484C21.3169 20.3798 21.3169 19.6201 20.8483 19.1514L19.1513 20.8484ZM12.8483 11.1514C12.3797 10.6828 11.6199 10.6828 11.1513 11.1514C10.6826 11.62 10.6826 12.3798 11.1513 12.8485L12.8483 11.1514ZM12.8483 28.8484L20.8483 20.8484L19.1513 19.1514L11.1513 27.1514L12.8483 28.8484ZM20.8483 20.8484L28.8483 12.8485L27.1513 11.1514L19.1513 19.1514L20.8483 20.8484ZM19.1513 20.8484L27.1513 28.8484L28.8483 27.1514L20.8483 19.1514L19.1513 20.8484ZM20.8483 19.1514L12.8483 11.1514L11.1513 12.8485L19.1513 20.8484L20.8483 19.1514Z" fill="white"/>
</svg>
