<svg width="18" height="18" viewBox="0 0 18 18" fill="none" xmlns="http://www.w3.org/2000/svg">
    <path d="M17.5158 10.4539C17.5158 5.46926 13.7427 1.38464 9.06964 1.38464C4.39656 1.38464 0.588867 5.46926 0.588867 10.4539C0.588867 11.6308 0.796559 12.8077 1.21194 13.9154C1.69656 15.2654 2.9081 16.2346 4.36194 16.2693C4.77733 16.2693 5.12348 15.9231 5.12348 15.5077V11.1808C5.12348 10.7654 4.77733 10.4193 4.36194 10.4193C3.60041 10.4193 2.87348 10.6962 2.31964 11.1116C2.28502 10.8693 2.28502 10.6616 2.28502 10.4193C2.28502 6.33464 5.33117 3.04618 9.06964 3.04618C12.8081 3.04618 15.8542 6.36926 15.8542 10.4193C15.8542 10.6616 15.8543 10.9039 15.8196 11.1116C15.2658 10.6616 14.5735 10.3846 13.7773 10.3846C13.3619 10.3846 13.0158 10.7308 13.0158 11.1462V15.4385C13.0158 15.8539 13.3619 16.2 13.7773 16.2C14.6081 16.2 15.4735 15.8885 16.0273 15.2654C16.6158 14.6423 16.8927 13.95 17.135 13.1193C17.3773 12.2885 17.5158 11.3885 17.5158 10.4539Z" fill="#6A5AE0"/>
</svg>
