<svg width="49" height="48" viewBox="0 0 49 48" fill="none" xmlns="http://www.w3.org/2000/svg">
    <path d="M24.5 31C28.92 31 32.5 27.42 32.5 23V12C32.5 7.58 28.92 4 24.5 4C20.08 4 16.5 7.58 16.5 12V23C16.5 27.42 20.08 31 24.5 31Z" stroke="white" stroke-width="3" stroke-linecap="round" stroke-linejoin="round"/>
    <path d="M9.19922 19.3V22.7001C9.19922 31.14 16.0592 38 24.4992 38C32.9392 38 39.7992 31.14 39.7992 22.7001V19.3" stroke="white" stroke-width="3" stroke-linecap="round" stroke-linejoin="round"/>
    <path d="M21.7207 12.86C23.5207 12.2 25.4807 12.2 27.2807 12.86" stroke="white" stroke-width="3" stroke-linecap="round" stroke-linejoin="round"/>
    <path d="M22.9004 17.0999C23.9604 16.8199 25.0604 16.8199 26.1204 17.0999" stroke="white" stroke-width="3" stroke-linecap="round" stroke-linejoin="round"/>
    <path d="M24.5 38V44" stroke="white" stroke-width="3" stroke-linecap="round" stroke-linejoin="round"/>
</svg>
