<svg width="45" height="45" viewBox="0 0 45 45" fill="none" xmlns="http://www.w3.org/2000/svg">
    <path d="M8.79615 33.5601C8.79615 34.3228 9.06014 34.9681 9.58814 35.4961C10.1161 36.0241 10.7761 36.3028 11.5681 36.3321H17.1121C17.8748 36.3321 18.5348 36.0535 19.0921 35.4961C19.6495 34.9388 19.9135 34.2935 19.8841 33.5601V11.3401C19.8841 10.5775 19.6201 9.91745 19.0921 9.36012C18.5641 8.80278 17.9041 8.53878 17.1121 8.56812H11.5681C10.8055 8.56812 10.1455 8.83212 9.58814 9.36012C9.03081 9.88812 8.76681 10.5481 8.79615 11.3401V33.5601ZM25.4281 33.5601C25.4281 34.3228 25.7068 34.9681 26.2641 35.4961C26.8215 36.0241 27.4668 36.3028 28.2001 36.3321H33.7441C34.5068 36.3321 35.1668 36.0535 35.7241 35.4961C36.2815 34.9388 36.5455 34.2935 36.5161 33.5601V11.3401C36.5161 10.5775 36.2521 9.91745 35.7241 9.36012C35.1961 8.80278 34.5361 8.53878 33.7441 8.56812H28.2001C27.4375 8.56812 26.7921 8.83212 26.2641 9.36012C25.7361 9.88812 25.4575 10.5481 25.4281 11.3401V33.5601Z" fill="white"/>
</svg>
