<svg width="205" height="210" viewBox="0 0 205 210" fill="none" xmlns="http://www.w3.org/2000/svg">
    <path fill-rule="evenodd" clip-rule="evenodd" d="M186.316 2.402C183.64 3.591 181.687 5.263 181.066 6.897C180.522 8.328 180.077 15.134 180.077 22.023V34.548L172.827 28.19C164.397 20.797 156.24 15.161 150.577 12.816C148.377 11.906 144.327 10.122 141.577 8.852C131.828 4.351 122.1 2.861 103.077 2.954C82.564 3.054 75.422 4.556 60.655 11.872C47.114 18.58 41.321 22.463 33.565 30.028C3.54597 59.31 -6.76203 99.769 5.99997 138.213C11.98 156.228 21.864 171.75 34.412 182.836C44.978 192.169 52.884 197.154 65.297 202.31C77.259 207.279 88.739 209.368 104.077 209.368C119.425 209.368 130.902 207.277 142.857 202.303C157.292 196.298 166.277 190.246 177.593 178.905C195.495 160.965 204.058 142.699 198.111 135.138C193.933 129.827 185.459 129.063 181.424 133.633C180.338 134.862 177.949 138.793 176.115 142.368C164.168 165.648 143.127 181.152 117.621 185.468C108.287 187.047 90.591 186.042 81.281 183.403C65.49 178.928 47.473 165.792 38.127 151.941C27.656 136.425 23.415 120.822 24.308 101.107C25.261 80.089 33.813 61.617 49.327 47.069C62.036 35.15 75.975 28.696 96.416 25.264C103.271 24.113 105.503 24.161 114.202 25.646C126.819 27.798 136.831 31.176 145.014 36.041C151.236 39.74 168.077 54.662 168.077 56.477C168.077 56.967 160.713 57.368 151.712 57.368C136.955 57.368 135.101 57.561 132.847 59.334C125.567 65.061 127.341 75.873 136.105 79.192C137.651 79.778 150.21 79.901 168.438 79.509L198.243 78.868L201.317 75.426L204.391 71.985L203.733 41.198C202.993 6.61 202.814 5.764 195.445 2.18C191.049 0.0409999 191.664 0.026 186.316 2.402Z" fill="#6A5AE0"/>
</svg>
