<svg width="18" height="18" viewBox="0 0 18 18" fill="none" xmlns="http://www.w3.org/2000/svg">
    <mask id="path-1-inside-1_2001_1538" fill="white">
        <path d="M8.36809 0.818886C8.33557 0.397581 8.65113 0.0262485 9.07367 0.0297273C10.9774 0.0454001 12.8343 0.666874 14.3698 1.81446C16.1104 3.11528 17.3196 5.00366 17.7729 7.12881C18.2261 9.25395 17.8926 11.4714 16.8343 13.3692C15.7759 15.2669 14.0647 16.7161 12.0185 17.4473C9.97229 18.1786 7.73022 18.1423 5.70877 17.3451C3.68733 16.548 2.02394 15.0442 1.02761 13.1132C0.03128 11.1821 -0.230256 8.95502 0.291586 6.84567C0.751954 4.98481 1.79439 3.32717 3.25695 2.10848C3.58158 1.83798 4.06102 1.9252 4.30289 2.27169V2.27169C4.54475 2.61818 4.45685 3.09233 4.13701 3.36849C2.97617 4.3708 2.14833 5.71229 1.77702 7.21316C1.3442 8.9627 1.56112 10.8099 2.38749 12.4115C3.21387 14.0132 4.59351 15.2604 6.27014 15.9216C7.94676 16.5828 9.80637 16.6129 11.5035 16.0064C13.2007 15.3998 14.62 14.1979 15.4978 12.6239C16.3756 11.0498 16.6522 9.21063 16.2763 7.448C15.9004 5.68537 14.8974 4.11911 13.4538 3.04018C12.2153 2.1146 10.7247 1.60165 9.19154 1.56212C8.76913 1.55123 8.40061 1.24019 8.36809 0.818886V0.818886Z"/>
    </mask>
    <path d="M8.36809 0.818886C8.33557 0.397581 8.65113 0.0262485 9.07367 0.0297273C10.9774 0.0454001 12.8343 0.666874 14.3698 1.81446C16.1104 3.11528 17.3196 5.00366 17.7729 7.12881C18.2261 9.25395 17.8926 11.4714 16.8343 13.3692C15.7759 15.2669 14.0647 16.7161 12.0185 17.4473C9.97229 18.1786 7.73022 18.1423 5.70877 17.3451C3.68733 16.548 2.02394 15.0442 1.02761 13.1132C0.03128 11.1821 -0.230256 8.95502 0.291586 6.84567C0.751954 4.98481 1.79439 3.32717 3.25695 2.10848C3.58158 1.83798 4.06102 1.9252 4.30289 2.27169V2.27169C4.54475 2.61818 4.45685 3.09233 4.13701 3.36849C2.97617 4.3708 2.14833 5.71229 1.77702 7.21316C1.3442 8.9627 1.56112 10.8099 2.38749 12.4115C3.21387 14.0132 4.59351 15.2604 6.27014 15.9216C7.94676 16.5828 9.80637 16.6129 11.5035 16.0064C13.2007 15.3998 14.62 14.1979 15.4978 12.6239C16.3756 11.0498 16.6522 9.21063 16.2763 7.448C15.9004 5.68537 14.8974 4.11911 13.4538 3.04018C12.2153 2.1146 10.7247 1.60165 9.19154 1.56212C8.76913 1.55123 8.40061 1.24019 8.36809 0.818886V0.818886Z" fill="#D9D9D9" stroke="#6A5AE0" stroke-width="2.4" mask="url(#path-1-inside-1_2001_1538)"/>
    <path d="M1.08691 2.17456L4.34894 2.17456" stroke="#6A5AE0" stroke-width="1.2" stroke-linecap="round"/>
    <path d="M4.34766 5.43677L4.34766 2.17474" stroke="#6A5AE0" stroke-width="1.2" stroke-linecap="round"/>
</svg>
