<svg width="28" height="28" viewBox="0 0 28 28" fill="none" xmlns="http://www.w3.org/2000/svg">
    <path d="M0.28052 24.992C0.28052 25.7547 0.54452 26.4 1.07252 26.928C1.60052 27.456 2.26052 27.7347 3.05252 27.764H8.59652C9.35919 27.764 10.0192 27.4853 10.5765 26.928C11.1339 26.3707 11.3979 25.7253 11.3685 24.992V2.772C11.3685 2.00934 11.1045 1.34934 10.5765 0.792002C10.0485 0.234669 9.38852 -0.0293306 8.59652 2.73692e-06H3.05252C2.28985 2.73692e-06 1.62985 0.264002 1.07252 0.792002C0.515187 1.32 0.251187 1.98 0.28052 2.772V24.992ZM11 25.1476C11 25.9102 8.94267 26.472 9.5 27C10.0573 27.528 6.4268 27.7347 7.16013 27.764H25.2285C25.9912 27.764 26.6512 27.4853 27.2085 26.928C27.7659 26.3707 28.0299 25.7253 28.0005 24.992V2.772C28.0005 2.00934 27.7365 1.34934 27.2085 0.792002C26.6805 0.234669 26.0205 -0.0293306 25.2285 2.73692e-06H8C7.23733 2.73692e-06 9.12452 0.264002 8.59652 0.792002C8.06852 1.32 11.0293 2.208 11 3V25.1476Z" fill="white"/>
</svg>
