<svg width="374" height="113" viewBox="0 0 374 113" fill="none" xmlns="http://www.w3.org/2000/svg">
    <path fill-rule="evenodd" clip-rule="evenodd" d="M0 55.694C2.25787 55.694 4.99957 54.9686 6.61233 55.9358C7.98318 56.8224 8.06382 59.724 8.54765 61.8195C10.1604 67.9451 11.6925 74.1512 13.3053 80.2767C13.4666 80.9215 13.9504 81.4051 14.3536 81.9693C14.6762 81.3245 15.16 80.7604 15.2406 80.1156C16.3696 69.6377 17.4985 59.2404 18.6274 48.7625C18.7081 47.9565 18.8693 47.1505 19.1113 46.3445C21.0466 51.8253 22.3368 57.3866 24.7559 62.7867C26.8525 52.4701 27.7395 42.0728 29.4329 31.7561C30.078 38.8488 30.8038 45.9415 31.4489 53.0342C32.0134 59.4016 32.6585 65.6883 33.3036 72.0556C33.3842 72.7004 33.868 73.2646 34.1906 73.9094C34.4325 73.3452 34.9163 72.781 34.997 72.1362C35.9646 63.7539 36.8517 55.3716 38.1419 46.9087C38.8676 49.4073 39.7546 51.9058 40.3191 54.4044C40.7223 56.097 41.5287 56.5806 43.1414 56.5C46.2057 56.3388 49.2699 56.3388 52.3342 56.5C54.0276 56.5806 54.6727 55.9358 54.7533 54.3238C55.1565 47.6341 55.6404 41.025 56.0435 34.3352C56.2048 31.9979 56.3661 29.6605 56.8499 27.3231C57.3338 30.7889 57.8982 34.2546 58.3821 37.7204C59.0272 42.0728 59.6723 46.4251 60.3174 50.7775C60.398 51.2611 60.8818 51.7447 61.2044 52.2282C61.4463 51.7447 61.9301 51.1805 61.9301 50.6969C62.172 45.8609 62.2527 41.1056 62.4946 36.2696C62.5752 34.98 62.6559 33.6904 62.8978 32.4009C63.2203 39.0906 63.5429 45.8609 63.7848 52.5506C63.8655 54.2432 63.8654 55.9358 64.0267 57.6284C64.1074 58.1926 64.5106 58.6762 64.8331 59.1598C65.1557 58.6762 65.6395 58.1926 65.6395 57.6284C65.962 53.9208 66.204 50.1327 66.5265 46.3445C67.1716 37.5592 67.8974 28.7739 68.7844 19.908C68.9457 22.2454 69.1069 24.5021 69.1876 26.8395C69.752 40.622 70.3165 54.3238 70.881 68.1063C70.881 68.5899 70.881 69.0735 70.9616 69.4765C71.1229 70.0407 71.4454 70.5243 71.768 71.0884C72.0906 70.5243 72.5744 69.9601 72.655 69.3959C72.9776 63.9151 73.2195 58.3538 73.4614 52.873C74.0259 41.3474 74.5903 29.8217 75.1548 18.296C75.1548 18.0542 75.2354 17.8124 75.4774 17.5706C75.7193 20.6334 75.9612 23.6155 76.1225 26.6783C77.332 45.2967 78.5416 63.8345 79.8318 82.4529C79.9125 83.3395 80.3963 84.2261 80.7188 85.1127C80.9608 84.2261 81.5252 83.3395 81.4446 82.3723C81.4446 65.2047 81.2833 47.9565 81.2833 30.7889C81.2833 29.6605 81.2833 28.6127 81.5252 27.4843C82.0897 34.8188 82.5735 42.1533 83.138 49.4879C84.1056 63.3509 85.0733 77.214 86.041 91.077C86.041 91.6412 86.041 92.286 86.2022 92.8502C86.2829 93.1726 86.7667 93.4144 87.0086 93.7368C87.2505 93.4144 87.6537 93.092 87.7344 92.7696C87.8956 92.286 87.7344 91.7218 87.7344 91.2382C87.7344 75.5214 87.7344 59.8046 87.7344 44.0877H87.815C88.0569 48.1983 88.2988 52.3088 88.4601 56.4194C89.0246 69.6376 89.589 82.8559 90.2341 96.0742C90.2341 96.8802 90.7986 97.6056 91.0405 98.4116C91.2824 97.6862 91.8469 96.8802 91.8469 96.1548C92.0082 76.005 92.1695 55.9358 92.3307 35.786C92.3307 34.7382 92.3307 33.6904 92.6533 32.7232C92.9758 37.9622 93.2984 43.2011 93.5403 48.4401C94.5886 67.1391 95.5563 85.7575 96.6046 104.456C96.6046 104.859 96.6046 105.262 96.6852 105.585C96.7658 105.907 97.0884 106.149 97.3303 106.391C97.6529 106.068 98.056 105.907 98.1367 105.504C98.298 105.021 98.2173 104.456 98.2173 103.973C98.2173 84.0649 98.298 64.1569 98.298 44.1683C98.298 42.7981 98.298 41.3474 98.5399 39.9772C99.0237 49.7297 99.5882 59.5628 100.072 69.3153C100.798 83.2589 101.443 97.2026 102.169 111.146C102.169 111.791 102.733 112.355 102.975 113C103.217 112.355 103.701 111.71 103.701 111.066C103.862 88.2561 104.023 65.3659 104.185 42.5564C104.185 41.5892 104.185 40.7026 104.507 39.7354C104.749 43.2817 104.991 46.8281 105.152 50.3745C106.12 68.1869 107.088 85.9993 108.136 103.812C108.216 104.779 108.7 105.746 109.023 106.713C109.265 105.746 109.829 104.779 109.829 103.812C109.749 88.4173 109.668 73.0228 109.507 57.6284C109.507 56.5 109.507 55.4522 109.749 54.3238C110.071 60.53 110.313 66.7361 110.636 72.9422C111.039 82.0499 111.442 91.2382 111.926 100.346C111.926 100.991 112.49 101.555 112.813 102.2C113.055 101.555 113.539 100.91 113.539 100.265C113.7 82.7753 113.861 65.2047 114.022 47.7147C114.022 47.2311 114.022 46.6669 114.264 46.1833C114.668 59.2404 115.151 72.2168 115.555 85.2739C115.635 88.7397 115.796 92.1248 115.958 95.5906C115.958 96.2354 116.442 96.7996 116.683 97.3638C117.006 96.719 117.49 96.1548 117.49 95.51C118.054 74.5542 118.538 53.5984 119.103 32.6427C119.103 32.0785 119.183 31.5143 119.425 30.9501C119.667 36.995 119.909 43.0399 120.151 49.0043C120.635 62.0613 121.038 75.1184 121.522 88.0949C121.522 88.3367 121.441 88.6591 121.522 88.9009C121.764 89.3039 122.086 89.7068 122.328 90.0292C122.57 89.6263 123.054 89.3039 123.135 88.9009C123.296 87.2889 123.296 85.6769 123.296 84.0649C123.699 68.0257 124.183 51.9864 124.586 36.0278C124.586 35.2218 124.586 34.4964 124.828 33.6904C125.15 45.2161 125.473 56.7418 125.796 68.3481C125.957 72.8616 126.038 77.4558 126.199 81.9693C126.199 82.5335 126.683 83.0977 126.925 83.7425C127.166 83.0977 127.731 82.5335 127.731 81.8887C128.053 65.4465 128.376 49.0849 128.618 32.6427C128.618 31.1113 128.618 29.5799 129.021 27.9679C129.344 33.2068 129.586 38.4458 129.908 43.6847C130.473 54.082 130.956 64.3987 131.521 74.796C131.521 75.4408 132.085 76.005 132.408 76.5692C132.65 75.9244 133.053 75.3602 133.053 74.796C133.214 62.3837 133.376 49.9715 133.537 37.6398C133.537 36.5114 133.537 35.3024 133.859 34.174C134.263 43.3623 134.666 52.5506 135.069 61.7389C135.15 64.3987 135.23 67.0585 135.472 69.7182C135.553 70.363 136.037 70.9272 136.359 71.4914C136.601 70.9272 137.004 70.2824 137.004 69.7182C137.327 57.9508 137.488 46.2639 137.73 34.4964C137.73 33.368 137.73 32.1591 138.053 31.0307C138.295 36.592 138.617 42.1534 138.859 47.7147C139.101 52.6312 139.262 57.5478 139.585 62.4643C139.585 63.1091 140.069 63.6733 140.31 64.2375C140.633 63.5927 141.117 63.0285 141.197 62.3837C141.762 50.2133 142.246 38.0428 142.73 25.7917C142.73 25.0663 142.81 24.3409 143.052 23.6156C143.294 27.3231 143.617 31.0307 143.859 34.8188C144.342 41.2668 144.746 47.7953 145.149 54.2432C145.149 54.5656 145.068 54.9686 145.229 55.2104C145.471 55.6134 145.794 55.9358 146.116 56.2582C146.358 55.8552 146.762 55.4522 146.842 55.0492C147.003 54.485 146.923 53.9208 146.923 53.276C147.326 44.4907 147.81 35.786 148.536 27.0007C148.939 31.1113 149.342 35.3024 149.664 39.413C150.068 44.4907 150.552 49.4879 150.955 54.5656C151.035 56.0164 151.6 56.5806 153.132 56.5806C160.954 56.5 168.856 56.5 176.678 56.5806C177.969 56.5806 178.694 56.1776 179.097 54.888C179.904 52.1476 180.952 49.4879 182 46.2639C182.968 51.0193 183.855 55.2104 184.742 59.321C185.79 64.5599 186.839 69.7182 187.968 74.9572C188.129 75.6826 188.693 76.2468 189.097 76.8916C189.339 76.2468 189.742 75.602 189.822 74.8766C190.629 62.9479 191.435 51.0193 192.241 39.1712C192.241 38.9294 192.322 38.6876 192.645 38.4458C193.128 40.2996 193.612 42.0728 194.016 43.9265C195.144 48.3595 196.193 52.873 197.322 57.306C197.483 58.0314 198.128 58.5956 198.531 59.2404C198.854 58.5956 199.338 57.9508 199.418 57.2254C200.789 48.5207 202.079 39.816 203.45 31.0307C203.45 30.8695 203.531 30.7889 203.773 30.1441C204.015 33.6098 204.337 36.592 204.498 39.5742C205.466 53.1954 206.434 66.8973 207.401 80.5186C207.482 81.5663 207.966 82.6141 208.288 83.6619C208.611 82.6947 209.175 81.7275 209.337 80.6797C210.546 68.3481 211.756 56.0164 212.965 43.2011C213.288 44.0071 213.53 44.3295 213.611 44.6519C214.659 48.4401 215.707 52.3088 216.594 56.097C216.917 57.5478 217.643 58.112 219.094 58.112C229.496 58.0314 239.899 58.112 250.301 58.0314C251.672 58.0314 252.317 58.4344 252.801 59.8046C254.414 64.6405 256.188 69.4765 257.881 74.3124C258.123 74.9572 258.687 75.5214 259.091 76.0856C259.332 75.4408 259.816 74.796 259.816 74.1512C260.542 58.918 261.187 43.6847 261.913 28.4515C261.913 28.0485 261.994 27.5649 262.397 27.0813C262.881 29.8217 263.284 32.5621 263.768 35.3024C264.655 40.622 265.461 45.9415 266.348 51.2611C266.429 51.9058 266.912 52.3894 267.235 52.9536C267.558 52.3894 268.041 51.8252 268.122 51.2611C268.848 46.9087 269.412 42.5563 270.38 38.204C270.622 42.0728 270.864 45.9415 271.106 49.8103C271.993 65.3659 272.88 80.9215 273.767 96.4772C273.767 96.6384 273.767 96.719 273.767 96.8802C274.009 97.3638 274.251 97.928 274.573 98.4116C274.896 97.928 275.379 97.4444 275.46 96.9608C275.783 94.8652 275.944 92.689 276.186 90.5935C277.395 78.6648 278.605 66.7361 279.815 54.8074C279.815 54.5656 279.895 54.3238 279.976 54.1626C280.137 54.1626 280.379 54.1626 280.54 54.1626C280.54 56.4194 280.54 58.7568 280.54 61.0136C280.54 62.8673 280.54 64.6405 280.702 66.4943C280.702 66.8973 281.185 67.3003 281.508 67.6227C281.831 67.3003 282.234 67.0585 282.395 66.7361C283.121 64.9629 283.846 63.2703 284.411 61.4972C284.814 59.9658 285.701 59.5628 287.233 59.5628C295.781 59.6434 304.409 59.5628 312.957 59.6434C314.812 59.6434 315.618 59.0792 316.102 57.306C316.505 55.5328 317.15 53.8402 318.037 52.1476C318.682 55.7746 319.327 59.4822 319.892 63.1091C321.908 75.0378 323.843 87.0471 325.859 98.9758C325.94 99.5399 326.504 100.104 326.827 100.588C327.069 100.024 327.552 99.3787 327.633 98.8145C328.52 81.9693 329.326 65.1241 330.133 48.2789C330.536 39.413 330.939 30.5471 331.423 21.6006C331.423 21.3588 331.504 21.117 331.907 20.8752C332.471 23.8573 333.036 26.8395 333.6 29.9023C335.697 41.5086 337.874 53.1148 339.971 64.7211C340.051 64.9629 339.971 65.2853 340.132 65.4465C340.374 65.8495 340.696 66.2525 341.019 66.5749C341.342 66.1719 341.825 65.7689 341.906 65.2853C342.632 60.6105 343.196 55.9358 343.922 51.1805C344.083 49.8103 344.325 48.5207 344.89 47.1505C345.212 49.0849 345.535 50.9387 345.777 52.873C347.47 64.3181 349.163 75.8438 350.937 87.2889C351.018 87.8531 351.583 88.4173 351.905 88.9009C352.147 88.3367 352.631 87.6919 352.712 87.1277C353.357 76.9722 353.921 66.8167 354.486 56.5806C355.05 46.7475 355.614 36.9144 356.179 27.0007C356.179 26.5977 356.34 26.1141 356.663 25.7111C358.276 31.7561 359.888 37.801 361.501 43.8459C362.711 48.3595 363.92 52.873 365.049 57.3866C365.372 58.918 366.097 59.4016 367.63 59.321C369.726 59.1598 371.903 59.2404 374 59.1598C374 58.6762 374 58.112 374 57.6284C371.903 57.709 369.887 57.709 367.791 57.7896C366.339 57.8702 366.501 56.7418 366.259 55.9358C363.598 46.0221 361.017 36.1084 358.437 26.1947C357.953 24.2603 357.389 22.326 356.905 20.3916C356.743 19.8274 356.421 19.2632 356.179 18.7796C356.018 18.7796 355.776 18.7796 355.614 18.7796C355.453 19.4244 355.131 20.0692 355.05 20.7946C354.324 33.0457 353.679 45.2967 352.953 57.5478C352.55 64.7211 352.147 71.8944 351.421 79.1484C350.937 75.8438 350.373 72.4586 349.889 69.1541C348.518 59.9658 347.147 50.7775 345.696 41.6698C345.615 40.9444 345.051 40.2996 344.648 39.6548C344.325 40.3802 343.841 41.025 343.68 41.7504C342.793 47.7953 341.987 53.8402 340.858 59.8852C340.374 57.2254 339.809 54.5656 339.326 51.9058C336.987 39.0906 334.649 26.2753 332.229 13.4601C332.149 12.8153 331.504 12.3317 331.181 11.6869C330.939 12.3317 330.455 12.8959 330.455 13.5407C329.73 27.9679 329.004 42.3146 328.359 56.7418C327.794 68.1063 327.23 79.5514 326.343 90.9964C325.859 88.0949 325.375 85.1933 324.891 82.2917C323.037 71.169 321.182 60.0464 319.327 48.9237C319.247 48.3595 318.763 47.7953 318.521 47.3117C318.118 47.7953 317.553 48.2789 317.311 48.8431C316.505 51.2611 315.699 53.5984 314.973 56.097C314.57 57.5478 313.925 58.0314 312.392 58.0314C304.087 57.9508 295.781 58.0314 287.475 58.0314C284.33 58.0314 284.33 58.0314 283.201 60.9329C283.04 61.3359 282.879 61.6583 282.718 62.0613C282.476 62.0613 282.234 61.9808 281.992 61.9808C281.992 57.2254 281.992 52.47 281.992 47.6341C281.992 45.2161 281.911 42.7981 281.75 40.4608C281.75 39.9772 281.266 39.4936 280.944 39.01C280.702 39.4936 280.218 39.8966 280.137 40.3802C279.331 47.9565 278.524 55.6134 277.718 63.1897C276.912 70.8467 276.105 78.5036 275.057 86.2411C274.815 82.0499 274.492 77.8588 274.251 73.6676C273.444 59.0792 272.638 44.4907 271.751 29.9023C271.751 29.3381 271.267 28.7739 270.944 28.1291C270.622 28.6933 270.057 29.1769 269.977 29.7411C269.251 34.577 268.525 39.3324 267.88 44.1683C267.799 44.7325 267.719 45.2967 267.235 45.8609C266.429 40.7832 265.622 35.7054 264.816 30.7083C264.171 26.5977 263.526 22.4872 262.8 18.3766C262.719 17.8124 262.235 17.3288 261.913 16.8452C261.59 17.4094 261.107 17.9736 261.107 18.5378C260.623 28.9351 260.139 39.413 259.655 49.8103C259.332 56.6612 259.01 63.5121 258.445 70.4437C258.284 70.0407 258.042 69.6377 257.881 69.1541C256.591 65.6077 255.301 62.0613 254.172 58.515C253.688 57.0642 252.962 56.5 251.43 56.5C241.27 56.5806 231.028 56.5 220.868 56.5806C219.175 56.5806 218.368 56.2582 217.965 54.4044C216.755 49.2461 215.304 44.0877 213.933 39.01C213.772 38.4458 213.288 38.0428 212.965 37.4786C212.643 38.0428 212.159 38.607 212.078 39.1712C211.03 49.4073 210.143 59.5628 209.176 69.7989C209.095 70.363 209.095 70.9272 208.611 71.4914C208.369 68.7511 208.208 66.0107 207.966 63.2703C206.998 49.9715 206.111 36.592 205.063 23.2931C204.982 22.729 204.498 22.1648 204.176 21.6006C203.853 22.1648 203.37 22.729 203.289 23.2931C201.757 32.8844 200.305 42.5563 198.854 52.1476C198.773 52.7118 198.612 53.276 198.37 54.2432C196.435 46.2639 194.499 38.7682 192.645 31.2725C192.241 31.2725 191.919 31.3531 191.516 31.3531C190.306 43.9265 189.822 56.6612 188.451 69.3153C187.081 62.9479 185.79 56.5 184.5 50.1327C184.097 48.1983 183.694 46.1833 183.291 44.2489C183.129 43.6847 182.726 43.2011 182.404 42.6369C182 43.1205 181.355 43.6041 181.194 44.1683C180.065 47.3117 179.017 50.5357 177.888 53.7596C177.727 54.3238 177.001 54.9686 176.517 54.9686C168.695 55.0492 160.793 55.0492 152.729 55.0492C152.406 51.9059 152.164 48.8431 151.842 45.7803C150.955 35.4636 150.068 25.0663 149.1 14.7496C149.019 14.1049 148.536 13.5406 148.213 12.9765C147.971 13.5406 147.568 14.1855 147.487 14.7496C147.003 23.132 146.6 31.5949 145.874 40.0578C145.633 37.3174 145.471 34.577 145.229 31.8367C144.665 23.9379 144.181 16.0392 143.536 8.14051C143.455 7.57631 142.972 7.01213 142.649 6.44793C142.407 7.01213 142.004 7.65692 141.923 8.22111C141.439 18.6184 140.956 28.9351 140.552 39.3324C140.472 40.4608 140.472 41.5086 140.149 42.6369C139.907 37.1562 139.585 31.6755 139.343 26.1947C139.02 19.102 138.698 12.0899 138.456 4.99714C138.456 4.51355 138.456 4.11055 138.295 3.70755C138.214 3.46576 137.811 3.22397 137.569 3.22397C137.327 3.22397 137.004 3.54636 136.924 3.78816C136.843 4.27175 136.843 4.83594 136.843 5.31954C136.601 17.5706 136.279 29.8217 135.795 42.1534C135.553 37.3174 135.311 32.4009 135.15 27.5649C134.827 19.5856 134.505 11.6063 134.182 3.62696C134.182 3.22397 134.263 2.82096 134.101 2.49857C133.94 2.09557 133.617 1.85378 133.376 1.53138C133.053 1.93437 132.73 2.25678 132.569 2.65977C132.408 3.06277 132.569 3.54636 132.569 4.02996C132.408 17.6512 132.247 31.2725 132.085 44.8937C132.085 45.8609 132.085 46.8281 131.763 47.7953C131.36 40.3802 130.956 32.965 130.553 25.5499C130.15 17.7318 129.747 9.8331 129.344 2.01498C129.344 1.45078 128.86 0.805994 128.618 0.2418C128.376 0.886593 127.812 1.45078 127.812 2.09557C127.489 15.072 127.247 28.0485 127.005 41.025C127.005 41.428 126.925 41.831 126.763 42.1534C126.602 34.7382 126.36 27.3231 126.199 19.8274C126.038 13.863 125.876 7.89871 125.715 1.93437C125.715 1.28958 125.15 0.644793 124.909 0C124.667 0.644793 124.102 1.28958 124.102 1.93437C123.618 20.714 123.135 39.413 122.651 58.1926C122.651 58.5956 122.651 58.9986 122.248 59.4016C122.167 58.5956 122.086 57.7896 122.086 56.9836C121.441 38.8488 120.796 20.6334 120.151 2.49857C120.151 2.01497 120.232 1.53138 120.07 1.12838C119.99 0.805987 119.586 0.402988 119.345 0.483588C119.103 0.483588 118.699 0.886591 118.619 1.20899C118.458 1.69258 118.538 2.25677 118.538 2.74037C118.054 22.8096 117.49 42.7981 117.006 62.8673C117.006 63.7539 116.925 64.6405 116.683 65.5271C116.442 57.709 116.119 49.9715 115.877 42.1534C115.474 29.4187 115.071 16.7646 114.587 4.02996C114.587 3.38516 114.022 2.82097 113.78 2.17617C113.539 2.82097 113.055 3.46576 113.055 4.11055C112.893 23.2931 112.813 42.5563 112.652 61.7389C112.652 63.5927 112.652 65.5271 112.329 67.3809C112.087 62.3031 111.765 57.306 111.603 52.2282C110.878 37.1562 110.232 22.1648 109.507 7.09273C109.507 6.52853 109.023 5.88373 108.781 5.31954C108.539 5.96433 107.975 6.52853 107.975 7.17332C108.055 25.3081 108.216 43.3623 108.378 61.4972C108.378 63.8345 108.378 66.1719 108.136 68.5093C107.733 61.4971 107.329 54.4044 106.926 47.3923C106.281 35.383 105.636 23.4543 104.91 11.4451C104.91 10.8809 104.426 10.2361 104.185 9.6719C103.943 10.3167 103.378 10.8809 103.378 11.5257C103.217 32.7233 103.056 54.0014 102.975 75.199C102.975 76.8916 102.975 78.5842 102.652 80.2767C102.411 75.6826 102.088 71.169 101.927 66.5749C100.959 46.7475 99.9914 26.9201 99.0237 7.09273C99.0237 6.77033 99.1043 6.36733 98.9431 6.12553C98.7012 5.64193 98.3786 5.31954 98.0561 4.91654C97.8141 5.31954 97.4916 5.72253 97.3303 6.12553C97.2497 6.52852 97.3303 7.01213 97.3303 7.49572C97.2497 28.3709 97.2497 49.3267 97.169 70.2019C97.169 71.3302 97.169 72.5392 96.9271 73.6676C96.6046 68.5899 96.3626 63.4315 96.0401 58.3538C95.0724 40.3802 94.1048 22.4872 93.0565 4.51355C92.9758 3.54636 92.4114 2.65977 92.0888 1.77318C91.8469 2.65977 91.3631 3.62695 91.3631 4.51355C91.2018 22.6484 91.0405 40.8638 90.9599 58.9986C90.9599 60.127 90.9599 61.3359 90.6373 62.4643C90.3148 56.097 90.0729 49.8103 89.7503 43.4429C89.1052 29.5799 88.4601 15.7168 87.8956 1.85378C87.8956 1.61199 87.9763 1.28959 87.815 1.04779C87.5731 0.644796 87.2505 0.322397 87.0086 0C86.7667 0.402996 86.4442 0.725392 86.2829 1.20899C86.1216 1.61198 86.2829 2.09558 86.2829 2.57917C86.3635 22.8902 86.4441 43.2011 86.5248 63.5121C86.5248 64.3987 86.5248 65.3659 86.2022 66.2525C85.799 61.1748 85.4765 56.1776 85.0733 51.0999C83.9444 34.7382 82.7348 18.3766 81.6059 1.93437C81.6059 1.61198 81.6865 1.20898 81.5252 0.967187C81.3639 0.644791 80.9608 0.402993 80.6382 0.161196C80.3963 0.402993 80.0737 0.72539 79.9931 0.967187C79.9125 1.45078 79.9931 2.01497 79.9931 2.49857C79.9931 20.0692 79.9931 37.6398 79.8318 55.291C79.6705 52.6312 79.4286 49.9715 79.2673 47.3117C78.2997 32.6427 77.332 18.0542 76.3644 3.38516C76.2837 2.57917 76.0418 1.69257 75.9612 0.886583C75.7193 0.886583 75.4774 0.886583 75.1548 0.886583C74.9935 1.53138 74.671 2.17618 74.5903 2.82097C73.8646 17.2482 73.1388 31.5949 72.4937 46.0221C72.4131 47.4729 72.2518 48.9237 71.9293 50.3745C71.5261 39.9772 71.0423 29.4993 70.6391 19.102C70.4778 14.669 70.2359 10.3167 69.994 5.88374C69.994 5.23895 69.4295 4.67475 69.1876 4.02996C68.9457 4.67475 68.4618 5.31954 68.3812 5.96433C67.4135 18.3766 66.4459 30.7889 65.2363 43.2011C64.9944 38.7682 64.7525 34.3352 64.5912 29.9829C64.2686 23.2931 64.0267 16.6034 63.7042 9.9137C63.7042 9.3495 63.2203 8.7047 62.9784 8.14051C62.6559 8.7853 62.1721 9.3495 62.1721 9.99429C61.7689 19.8274 61.4463 29.7411 61.1238 39.5742C61.1238 40.0578 61.0431 40.4608 60.8012 40.9444C60.1561 36.4308 59.4303 31.9979 58.7852 27.4843C58.3821 24.9051 58.0595 22.326 57.6563 19.8274C57.5757 19.1826 57.0918 18.5378 56.7693 17.893C56.4467 18.5378 55.9629 19.2632 55.8823 19.908C55.3984 26.7589 54.9146 33.6098 54.5114 40.4608C54.1889 45.1355 53.8663 49.8909 53.5438 54.8074C49.9957 54.8074 46.6895 54.888 43.3027 54.7268C42.8995 54.7268 42.3351 53.8402 42.0931 53.276C41.0448 49.8103 40.0772 46.2639 39.0289 42.7981C38.8676 42.2339 38.3031 41.7504 37.9 41.1862C37.5774 41.7504 37.0936 42.3146 37.0936 42.9593C36.3678 49.3267 35.7227 55.694 34.997 62.1419C34.9163 62.6255 34.8357 63.1091 34.4325 63.5927C34.11 60.53 33.7874 57.4672 33.5455 54.4044C32.5778 44.3295 31.6908 34.2546 30.6425 24.1797C30.5619 23.535 29.9974 22.9708 29.6749 22.326C29.3523 22.8902 28.8685 23.4543 28.7878 24.0991C27.6589 33.0456 26.6106 41.9922 25.5623 50.9387C25.3204 52.9536 25.0785 55.0492 24.4334 57.1448C23.627 54.3238 22.74 51.5028 21.9336 48.6819C21.2885 46.5057 20.724 44.3295 19.9983 42.1534C19.837 41.5892 19.2725 41.1862 18.95 40.7832C18.7081 41.2668 18.2242 41.831 18.1436 42.3146C17.3372 49.3267 16.6115 56.3388 15.8051 63.4315C15.4019 67.5421 14.9181 71.6526 14.4342 76.3274C14.1117 75.5214 13.8698 75.1184 13.7891 74.796C12.1764 68.5899 10.483 62.3837 8.95084 56.1776C8.54765 54.5656 7.98318 53.8402 6.20914 54.0014C4.19319 54.1626 2.17723 54.082 0.161276 54.1626C3.60481e-08 54.6462 0 55.1298 0 55.694Z" fill="white" fill-opacity="0.15"/>
</svg>
