<svg width="20" height="20" viewBox="0 0 20 20" fill="none" xmlns="http://www.w3.org/2000/svg">
    <path d="M10.0003 11.9047C11.186 11.9047 12.1431 10.9475 12.1431 9.76183V5.47611C12.1431 4.29039 11.186 3.33325 10.0003 3.33325C8.81453 3.33325 7.85742 4.29039 7.85742 5.47611V9.76183C7.85742 10.9475 8.81453 11.9047 10.0003 11.9047Z" fill="#444444"/>
    <path d="M13.7857 9.76196H15C15 12.1976 13.0572 14.212 10.7142 14.562V16.9048H9.28575V14.562C6.94286 14.212 5 12.1976 5 9.76196H6.21428C6.21428 11.9048 8.02857 13.4048 10 13.4048C11.9714 13.4048 13.7857 11.9048 13.7857 9.76196Z" fill="#444444"/>
</svg>
