<svg width="20" height="20" viewBox="0 0 20 20" fill="none" xmlns="http://www.w3.org/2000/svg">
    <g clip-path="url(#clip0_564_1881)">
        <path d="M8.33301 15.8333C6.84965 15.8333 5.3996 15.3934 4.16623 14.5693C2.93287 13.7452 1.97157 12.5738 1.40391 11.2034C0.836257 9.83294 0.687732 8.32494 0.977122 6.87008C1.26651 5.41522 1.98082 4.07885 3.02971 3.02995C4.0786 1.98106 5.41498 1.26675 6.86983 0.977366C8.32469 0.687977 9.83269 0.836502 11.2031 1.40416C12.5736 1.97182 13.7449 2.93311 14.569 4.16648C15.3931 5.39985 15.833 6.8499 15.833 8.33325C15.8306 10.3216 15.0396 12.2279 13.6336 13.6339C12.2276 15.0399 10.3214 15.8308 8.33301 15.8333ZM8.33301 2.49992C7.17929 2.49992 6.05147 2.84204 5.09218 3.48302C4.1329 4.12399 3.38523 5.03503 2.94371 6.10093C2.5022 7.16684 2.38668 8.33973 2.61176 9.47128C2.83684 10.6028 3.39242 11.6422 4.20822 12.458C5.02403 13.2739 6.06343 13.8294 7.19498 14.0545C8.32654 14.2796 9.49943 14.1641 10.5653 13.7226C11.6312 13.281 12.5423 12.5334 13.1833 11.5741C13.8242 10.6148 14.1663 9.48698 14.1663 8.33325C14.1646 6.7867 13.5494 5.30399 12.4559 4.21041C11.3623 3.11683 9.87957 2.50169 8.33301 2.49992Z" fill="#444444"/>
        <path d="M5.83268 8.33317H4.16602C4.16734 7.22851 4.60675 6.16947 5.38787 5.38835C6.16898 4.60724 7.22802 4.16783 8.33268 4.1665V5.83317C7.66964 5.83317 7.03376 6.09656 6.56492 6.5654C6.09607 7.03424 5.83268 7.67013 5.83268 8.33317Z" fill="#444444"/>
        <path d="M18.9223 17.7442L15.3756 14.1975C15.0195 14.6253 14.6251 15.0197 14.1973 15.3758L17.7439 18.9225C17.9011 19.0743 18.1116 19.1583 18.3301 19.1564C18.5486 19.1545 18.7576 19.0669 18.9121 18.9124C19.0666 18.7579 19.1543 18.5488 19.1562 18.3303C19.1581 18.1118 19.0741 17.9013 18.9223 17.7442Z" fill="#444444"/>
    </g>
    <defs>
        <clipPath id="clip0_564_1881">
            <rect width="20" height="20" fill="white"/>
        </clipPath>
    </defs>
</svg>
