<svg width="14" height="12" viewBox="0 0 14 12" fill="none" xmlns="http://www.w3.org/2000/svg">
    <path d="M6.69983 1.06242C6.79253 0.811514 6.83889 0.686061 6.90645 0.650306C6.96497 0.619335 7.03503 0.619335 7.09355 0.650306C7.16111 0.686061 7.20746 0.811514 7.30017 1.06242L8.33915 3.8745C8.367 3.94986 8.38092 3.98754 8.40523 4.01532C8.42671 4.03986 8.45386 4.05877 8.48433 4.07041C8.51881 4.08359 8.55898 4.08359 8.63932 4.08359H12.054C12.3427 4.08359 12.4871 4.08359 12.5446 4.13682C12.5943 4.18286 12.6174 4.25097 12.6058 4.31776C12.5924 4.39496 12.4777 4.4826 12.2482 4.65788L9.46917 6.7809C9.40525 6.82974 9.37329 6.85415 9.35388 6.8856C9.33673 6.91338 9.32665 6.94494 9.3245 6.97751C9.32207 7.01439 9.33395 7.05282 9.3577 7.12967L10.4126 10.5435C10.5022 10.8332 10.5469 10.9781 10.5118 11.0495C10.4815 11.1112 10.4216 11.153 10.3532 11.1601C10.2742 11.1684 10.1536 11.0764 9.91262 10.8922L7.19426 8.81559C7.12469 8.76244 7.0899 8.73587 7.0516 8.72564C7.01779 8.71661 6.98221 8.71661 6.9484 8.72564C6.91009 8.73587 6.87531 8.76244 6.80574 8.81559L4.08738 10.8922C3.84636 11.0764 3.72584 11.1684 3.64676 11.1601C3.57839 11.153 3.5185 11.1112 3.48816 11.0495C3.45306 10.9781 3.49783 10.8332 3.58738 10.5435L4.6423 7.12967C4.66605 7.05282 4.67793 7.01439 4.6755 6.97751C4.67335 6.94494 4.66327 6.91338 4.64612 6.8856C4.62671 6.85415 4.59475 6.82974 4.53083 6.7809L1.75176 4.65788C1.52231 4.4826 1.40758 4.39496 1.3942 4.31776C1.38262 4.25097 1.40566 4.18286 1.4554 4.13682C1.51291 4.08359 1.65728 4.08359 1.94601 4.08359H5.36068C5.44102 4.08359 5.48119 4.08359 5.51567 4.07041C5.54614 4.05877 5.57329 4.03986 5.59477 4.01532C5.61908 3.98754 5.633 3.94986 5.66085 3.8745L6.69983 1.06242Z" fill="white" stroke="white" stroke-linejoin="round"/>
</svg>
